# xmcd CD database file
#
# Track frame offsets:
#	150
#	17040
#	38160
#	68920
#	74932
#	86190
#	94920
#	109237
#	143250
#	174665
#	203625
#	215885
#	229235
#	233542
#	268272
#	290825
#	313650
#
# Disc length: 4344 seconds
#
# Revision: 0
# Processed by: cddbd v1.5.2PL0 Copyright (c) Steve Scherf et al.
# Submitted via: CDex 1.70beta2
#
DISCID=0a10f611
DTITLE=東京楽所 - 平安朝　殿上人の秘曲
DYEAR=1900
DGENRE=Country
TTITLE0=琵琶　越殿楽
TTITLE1=筝　越殿楽
TTITLE2=筝　越殿楽　輪説
TTITLE3=和琴　薦枕音取
TTITLE4=和琴　庭火　（秘曲）
TTITLE5=和琴　朝倉音取
TTITLE6=筝　掻合　（壱越調）
TTITLE7=琵琶　揚真操
TTITLE8=筝　登掻合
TTITLE9=琵琶　啄木
TTITLE10=和琴　催馬楽　律　弾合・掻
TTITLE11=和琴　催馬楽　呂　弾合・掻
TTITLE12=和琴　大歌音取
TTITLE13=琵琶　石上流泉
TTITLE14=筝　春鶯囀　遊声
TTITLE15=琵琶　上原石上流泉
TTITLE16=和琴　東遊　狛調子
EXTD=
EXTT0=
EXTT1=
EXTT2=
EXTT3=
EXTT4=
EXTT5=
EXTT6=
EXTT7=
EXTT8=
EXTT9=
EXTT10=
EXTT11=
EXTT12=
EXTT13=
EXTT14=
EXTT15=
EXTT16=
PLAYORDER=
